<?xml version="1.0" standalone="no"?>
<!DOCTYPE svg PUBLIC "-//W3C//DTD SVG 20010904//EN"
 "http://www.w3.org/TR/2001/REC-SVG-20010904/DTD/svg10.dtd">
<svg version="1.0" xmlns="http://www.w3.org/2000/svg"
 width="981.000000pt" height="980.000000pt" viewBox="0 0 981.000000 980.000000"
 preserveAspectRatio="xMidYMid meet">
<metadata>
Created by potrace 1.16, written by Peter Selinger 2001-2019
</metadata>
<g transform="translate(0.000000,980.000000) scale(0.100000,-0.100000)"
fill="#000000" stroke="none">
<path d="M4645 9794 c-466 -35 -756 -86 -1145 -201 -542 -161 -1083 -431
-1535 -767 -956 -712 -1627 -1769 -1865 -2937 -71 -351 -95 -596 -95 -984 0
-314 9 -438 46 -699 132 -920 529 -1796 1135 -2506 132 -155 433 -454 574
-571 437 -363 891 -625 1425 -824 386 -143 763 -230 1225 -282 218 -24 762
-24 980 0 810 90 1501 332 2170 759 468 300 947 746 1290 1203 490 653 802
1436 910 2280 59 464 51 1036 -21 1475 -108 662 -358 1293 -732 1855 -183 274
-365 494 -622 750 -371 371 -746 651 -1173 878 -570 302 -1162 483 -1812 552
-136 15 -643 28 -755 19z m705 -758 c750 -87 1449 -365 2045 -815 282 -213
606 -538 822 -826 709 -943 983 -2099 772 -3265 -134 -744 -494 -1462 -1009
-2015 -598 -642 -1320 -1069 -2135 -1264 -332 -79 -571 -105 -950 -105 -320 0
-455 11 -730 59 -618 109 -1210 362 -1705 728 -312 231 -644 562 -885 883
-457 608 -729 1303 -817 2084 -16 151 -17 659 0 810 132 1183 673 2150 1607
2870 618 476 1400 790 2145 859 63 6 133 13 155 15 88 9 558 -4 685 -18z"/>
<path d="M3156 7856 c-73 -31 -137 -92 -168 -160 l-23 -51 -3 -2710 -2 -2710
22 -75 c19 -64 30 -83 78 -131 66 -68 139 -99 231 -99 83 0 140 23 319 127 85
49 1116 642 2290 1318 2101 1208 2136 1229 2213 1304 70 68 80 83 99 145 36
119 5 249 -79 332 -23 23 -183 122 -388 240 -1558 897 -3888 2238 -4055 2335
-113 65 -225 126 -250 135 -25 9 -85 18 -135 20 -79 4 -97 2 -149 -20z"/>
</g>
</svg>
